<?xml version="1.0" encoding="utf-8"?>
<!-- Generator: Adobe Illustrator 24.0.2, SVG Export Plug-In . SVG Version: 6.00 Build 0)  -->
<svg version="1.1" id="Layer_1" xmlns="http://www.w3.org/2000/svg" xmlns:xlink="http://www.w3.org/1999/xlink" x="0px" y="0px"
	 viewBox="0 0 1080 1080" style="enable-background:new 0 0 1080 1080;" xml:space="preserve">
<style type="text/css">
	.st0{fill:#FFFFFF;}
</style>
<g>
	<path class="st0" d="M126.86,948.77V500.22H368.7c67.27,70.2,142.29,132.66,212.12,199.96H455.17l-87.82-75.66v175.64h-91.87
		V586.68h-56.74V859.6h520.16c8.86,0,39.86-8.87,49.88-12.27c146.96-49.86,148.49-212.63-0.06-256.89l0.47-65.61
		c91.8-35.16,124.85-151.53,59.06-228.54c-36.25-42.43-92.94-60.05-147.21-63.55c-153.92-9.94-317.99,7.5-472.98-0.16
		c-2.77-0.59-9.32,1.95-9.32,4.19v98.63h193.2c40.65,42.13,84.58,81.36,122.83,125.65c-8.76,7.09-57.89,61.51-63.02,60.6
		L371.4,421.86H126.86V148.94h606.63c22.54,0,81.83,21.03,103.18,31.92c144,73.47,185.78,264.88,54.95,372.04
		c144.23,90.81,118.59,270.03-21.62,351.33c-49.89,28.93-106.1,40.98-163.4,44.66L126.86,948.77z"/>
	<path class="st0" d="M775.37,327.28v462.06H683.5V454.28L543.8,591.8c-3.36,1.25-5.17-0.56-7.69-2.25
		c-17.56-11.8-33.69-40.62-54.03-51.46l-1.41-4.05c62.8-72.24,134.56-135.95,198.77-206.75H775.37z"/>
</g>
</svg>
